<mxfile host="app.diagrams.net" modified="2021-07-30T03:06:13.651Z" agent="5.0 (Windows NT 10.0; WOW64) AppleWebKit/537.36 (KHTML, like Gecko) Chrome/73.0.3683.103 Safari/537.36" etag="mPa-vnjLwakt67DVFtbO" version="14.8.6" type="github">
  <diagram id="Z5xzxhm7ZqA-9We6Hihh" name="第 1 页">
    <mxGraphModel dx="1278" dy="1673" grid="1" gridSize="10" guides="1" tooltips="1" connect="1" arrows="1" fold="1" page="1" pageScale="1" pageWidth="827" pageHeight="1169" math="0" shadow="0">
      <root>
        <mxCell id="0" />
        <mxCell id="1" parent="0" />
        <mxCell id="oC6Kfuh_bPXCMeebPesq-1" value="" style="rounded=0;whiteSpace=wrap;html=1;" vertex="1" parent="1">
          <mxGeometry x="150" y="140" width="830" height="60" as="geometry" />
        </mxCell>
        <mxCell id="oC6Kfuh_bPXCMeebPesq-2" value="一等奖" style="rounded=0;whiteSpace=wrap;html=1;" vertex="1" parent="1">
          <mxGeometry x="150" y="140" width="120" height="60" as="geometry" />
        </mxCell>
        <mxCell id="oC6Kfuh_bPXCMeebPesq-3" value="谢谢参与" style="rounded=0;whiteSpace=wrap;html=1;" vertex="1" parent="1">
          <mxGeometry x="270" y="140" width="120" height="60" as="geometry" />
        </mxCell>
        <mxCell id="oC6Kfuh_bPXCMeebPesq-4" value="二等奖" style="rounded=0;whiteSpace=wrap;html=1;" vertex="1" parent="1">
          <mxGeometry x="390" y="140" width="120" height="60" as="geometry" />
        </mxCell>
        <mxCell id="oC6Kfuh_bPXCMeebPesq-5" value="&lt;span&gt;谢谢参与&lt;/span&gt;" style="rounded=0;whiteSpace=wrap;html=1;" vertex="1" parent="1">
          <mxGeometry x="510" y="140" width="120" height="60" as="geometry" />
        </mxCell>
        <mxCell id="oC6Kfuh_bPXCMeebPesq-6" value="一等奖" style="rounded=0;whiteSpace=wrap;html=1;" vertex="1" parent="1">
          <mxGeometry x="630" y="140" width="120" height="60" as="geometry" />
        </mxCell>
        <mxCell id="oC6Kfuh_bPXCMeebPesq-7" value="二等奖" style="rounded=0;whiteSpace=wrap;html=1;" vertex="1" parent="1">
          <mxGeometry x="750" y="140" width="120" height="60" as="geometry" />
        </mxCell>
        <mxCell id="oC6Kfuh_bPXCMeebPesq-8" value="&lt;span&gt;谢谢参与&lt;/span&gt;" style="rounded=0;whiteSpace=wrap;html=1;" vertex="1" parent="1">
          <mxGeometry x="870" y="140" width="120" height="60" as="geometry" />
        </mxCell>
        <mxCell id="oC6Kfuh_bPXCMeebPesq-9" value="0" style="text;html=1;strokeColor=none;fillColor=none;align=center;verticalAlign=middle;whiteSpace=wrap;rounded=0;" vertex="1" parent="1">
          <mxGeometry x="190" y="220" width="40" height="20" as="geometry" />
        </mxCell>
        <mxCell id="oC6Kfuh_bPXCMeebPesq-10" value="4" style="text;html=1;strokeColor=none;fillColor=none;align=center;verticalAlign=middle;whiteSpace=wrap;rounded=0;" vertex="1" parent="1">
          <mxGeometry x="670" y="220" width="40" height="20" as="geometry" />
        </mxCell>
        <mxCell id="oC6Kfuh_bPXCMeebPesq-11" value="3" style="text;html=1;strokeColor=none;fillColor=none;align=center;verticalAlign=middle;whiteSpace=wrap;rounded=0;" vertex="1" parent="1">
          <mxGeometry x="545" y="220" width="40" height="20" as="geometry" />
        </mxCell>
        <mxCell id="oC6Kfuh_bPXCMeebPesq-12" value="2" style="text;html=1;strokeColor=none;fillColor=none;align=center;verticalAlign=middle;whiteSpace=wrap;rounded=0;" vertex="1" parent="1">
          <mxGeometry x="440" y="220" width="40" height="20" as="geometry" />
        </mxCell>
        <mxCell id="oC6Kfuh_bPXCMeebPesq-13" value="1" style="text;html=1;strokeColor=none;fillColor=none;align=center;verticalAlign=middle;whiteSpace=wrap;rounded=0;" vertex="1" parent="1">
          <mxGeometry x="310" y="220" width="40" height="20" as="geometry" />
        </mxCell>
        <mxCell id="oC6Kfuh_bPXCMeebPesq-16" value="5" style="text;html=1;strokeColor=none;fillColor=none;align=center;verticalAlign=middle;whiteSpace=wrap;rounded=0;" vertex="1" parent="1">
          <mxGeometry x="790" y="220" width="40" height="20" as="geometry" />
        </mxCell>
        <mxCell id="oC6Kfuh_bPXCMeebPesq-17" value="6" style="text;html=1;strokeColor=none;fillColor=none;align=center;verticalAlign=middle;whiteSpace=wrap;rounded=0;" vertex="1" parent="1">
          <mxGeometry x="910" y="220" width="40" height="20" as="geometry" />
        </mxCell>
        <mxCell id="oC6Kfuh_bPXCMeebPesq-18" value="奖池：用一个线性表存储" style="text;html=1;strokeColor=none;fillColor=none;align=left;verticalAlign=middle;whiteSpace=wrap;rounded=0;fontSize=21;" vertex="1" parent="1">
          <mxGeometry x="150" y="90" width="260" height="20" as="geometry" />
        </mxCell>
        <mxCell id="oC6Kfuh_bPXCMeebPesq-19" value="&lt;h1 style=&quot;font-size: 16px&quot;&gt;&lt;span style=&quot;font-weight: normal ; font-size: 16px&quot;&gt;1：每个奖品上编号&lt;/span&gt;&lt;/h1&gt;&lt;div&gt;&lt;span style=&quot;font-weight: normal ; font-size: 16px&quot;&gt;2：洗牌打乱存储&lt;/span&gt;&lt;/div&gt;&lt;div&gt;&lt;span style=&quot;font-weight: normal ; font-size: 16px&quot;&gt;&lt;br&gt;&lt;/span&gt;&lt;/div&gt;&lt;div&gt;&lt;span style=&quot;font-weight: normal ; font-size: 16px&quot;&gt;3：随机取一个号&lt;/span&gt;&lt;/div&gt;&lt;div&gt;&lt;span style=&quot;font-weight: normal ; font-size: 16px&quot;&gt;&lt;br&gt;&lt;/span&gt;&lt;/div&gt;&lt;div&gt;&lt;span style=&quot;font-weight: normal ; font-size: 16px&quot;&gt;4：移走奖品，收缩奖池，删除空位，相当于奖品重新编号&lt;/span&gt;&lt;/div&gt;&lt;div&gt;&lt;span style=&quot;font-weight: normal ; font-size: 16px&quot;&gt;&lt;br&gt;&lt;/span&gt;&lt;/div&gt;&lt;div&gt;&lt;span style=&quot;font-weight: normal ; font-size: 16px&quot;&gt;5：如果百分百中奖，删除所有谢谢参与奖即可&lt;/span&gt;&lt;/div&gt;" style="text;html=1;strokeColor=none;fillColor=none;spacing=5;spacingTop=-20;whiteSpace=wrap;overflow=hidden;rounded=0;fontSize=16;fontStyle=1" vertex="1" parent="1">
          <mxGeometry x="160" y="-110" width="448" height="160" as="geometry" />
        </mxCell>
        <mxCell id="oC6Kfuh_bPXCMeebPesq-20" value="" style="rounded=0;whiteSpace=wrap;html=1;" vertex="1" parent="1">
          <mxGeometry x="150" y="291" width="830" height="60" as="geometry" />
        </mxCell>
        <mxCell id="oC6Kfuh_bPXCMeebPesq-21" value="一等奖" style="rounded=0;whiteSpace=wrap;html=1;" vertex="1" parent="1">
          <mxGeometry x="150" y="291" width="120" height="60" as="geometry" />
        </mxCell>
        <mxCell id="oC6Kfuh_bPXCMeebPesq-22" value="谢谢参与" style="rounded=0;whiteSpace=wrap;html=1;" vertex="1" parent="1">
          <mxGeometry x="270" y="291" width="120" height="60" as="geometry" />
        </mxCell>
        <mxCell id="oC6Kfuh_bPXCMeebPesq-23" value="二等奖" style="rounded=0;whiteSpace=wrap;html=1;" vertex="1" parent="1">
          <mxGeometry x="390" y="291" width="120" height="60" as="geometry" />
        </mxCell>
        <mxCell id="oC6Kfuh_bPXCMeebPesq-24" value="&lt;span&gt;谢谢参与&lt;/span&gt;" style="rounded=0;whiteSpace=wrap;html=1;fontColor=#FF0000;" vertex="1" parent="1">
          <mxGeometry x="510" y="291" width="120" height="60" as="geometry" />
        </mxCell>
        <mxCell id="oC6Kfuh_bPXCMeebPesq-25" value="一等奖" style="rounded=0;whiteSpace=wrap;html=1;" vertex="1" parent="1">
          <mxGeometry x="630" y="291" width="120" height="60" as="geometry" />
        </mxCell>
        <mxCell id="oC6Kfuh_bPXCMeebPesq-26" value="二等奖" style="rounded=0;whiteSpace=wrap;html=1;" vertex="1" parent="1">
          <mxGeometry x="750" y="291" width="120" height="60" as="geometry" />
        </mxCell>
        <mxCell id="oC6Kfuh_bPXCMeebPesq-27" value="&lt;span&gt;谢谢参与&lt;/span&gt;" style="rounded=0;whiteSpace=wrap;html=1;" vertex="1" parent="1">
          <mxGeometry x="870" y="291" width="120" height="60" as="geometry" />
        </mxCell>
        <mxCell id="oC6Kfuh_bPXCMeebPesq-28" value="0" style="text;html=1;strokeColor=none;fillColor=none;align=center;verticalAlign=middle;whiteSpace=wrap;rounded=0;" vertex="1" parent="1">
          <mxGeometry x="190" y="371" width="40" height="20" as="geometry" />
        </mxCell>
        <mxCell id="oC6Kfuh_bPXCMeebPesq-29" value="4" style="text;html=1;strokeColor=none;fillColor=none;align=center;verticalAlign=middle;whiteSpace=wrap;rounded=0;" vertex="1" parent="1">
          <mxGeometry x="670" y="371" width="40" height="20" as="geometry" />
        </mxCell>
        <mxCell id="oC6Kfuh_bPXCMeebPesq-30" value="3" style="text;html=1;strokeColor=none;fillColor=none;align=center;verticalAlign=middle;whiteSpace=wrap;rounded=0;fontColor=#FF7530;" vertex="1" parent="1">
          <mxGeometry x="545" y="371" width="40" height="20" as="geometry" />
        </mxCell>
        <mxCell id="oC6Kfuh_bPXCMeebPesq-31" value="2" style="text;html=1;strokeColor=none;fillColor=none;align=center;verticalAlign=middle;whiteSpace=wrap;rounded=0;" vertex="1" parent="1">
          <mxGeometry x="440" y="371" width="40" height="20" as="geometry" />
        </mxCell>
        <mxCell id="oC6Kfuh_bPXCMeebPesq-32" value="1" style="text;html=1;strokeColor=none;fillColor=none;align=center;verticalAlign=middle;whiteSpace=wrap;rounded=0;" vertex="1" parent="1">
          <mxGeometry x="310" y="371" width="40" height="20" as="geometry" />
        </mxCell>
        <mxCell id="oC6Kfuh_bPXCMeebPesq-33" value="5" style="text;html=1;strokeColor=none;fillColor=none;align=center;verticalAlign=middle;whiteSpace=wrap;rounded=0;" vertex="1" parent="1">
          <mxGeometry x="790" y="371" width="40" height="20" as="geometry" />
        </mxCell>
        <mxCell id="oC6Kfuh_bPXCMeebPesq-34" value="6" style="text;html=1;strokeColor=none;fillColor=none;align=center;verticalAlign=middle;whiteSpace=wrap;rounded=0;" vertex="1" parent="1">
          <mxGeometry x="910" y="371" width="40" height="20" as="geometry" />
        </mxCell>
        <mxCell id="oC6Kfuh_bPXCMeebPesq-35" value="抽奖：随机取一个号 ： 3号" style="text;html=1;strokeColor=none;fillColor=none;align=left;verticalAlign=middle;whiteSpace=wrap;rounded=0;fontSize=21;" vertex="1" parent="1">
          <mxGeometry x="150" y="251" width="260" height="20" as="geometry" />
        </mxCell>
        <mxCell id="oC6Kfuh_bPXCMeebPesq-39" value="一等奖" style="rounded=0;whiteSpace=wrap;html=1;" vertex="1" parent="1">
          <mxGeometry x="152" y="458" width="120" height="60" as="geometry" />
        </mxCell>
        <mxCell id="oC6Kfuh_bPXCMeebPesq-40" value="谢谢参与" style="rounded=0;whiteSpace=wrap;html=1;" vertex="1" parent="1">
          <mxGeometry x="272" y="458" width="120" height="60" as="geometry" />
        </mxCell>
        <mxCell id="oC6Kfuh_bPXCMeebPesq-41" value="二等奖" style="rounded=0;whiteSpace=wrap;html=1;" vertex="1" parent="1">
          <mxGeometry x="392" y="458" width="120" height="60" as="geometry" />
        </mxCell>
        <mxCell id="oC6Kfuh_bPXCMeebPesq-43" value="一等奖" style="rounded=0;whiteSpace=wrap;html=1;" vertex="1" parent="1">
          <mxGeometry x="512" y="458" width="120" height="60" as="geometry" />
        </mxCell>
        <mxCell id="oC6Kfuh_bPXCMeebPesq-44" value="二等奖" style="rounded=0;whiteSpace=wrap;html=1;" vertex="1" parent="1">
          <mxGeometry x="632" y="458" width="120" height="60" as="geometry" />
        </mxCell>
        <mxCell id="oC6Kfuh_bPXCMeebPesq-45" value="&lt;span&gt;谢谢参与&lt;/span&gt;" style="rounded=0;whiteSpace=wrap;html=1;" vertex="1" parent="1">
          <mxGeometry x="752" y="458" width="120" height="60" as="geometry" />
        </mxCell>
        <mxCell id="oC6Kfuh_bPXCMeebPesq-46" value="0" style="text;html=1;strokeColor=none;fillColor=none;align=center;verticalAlign=middle;whiteSpace=wrap;rounded=0;" vertex="1" parent="1">
          <mxGeometry x="192" y="538" width="40" height="20" as="geometry" />
        </mxCell>
        <mxCell id="oC6Kfuh_bPXCMeebPesq-47" value="4" style="text;html=1;strokeColor=none;fillColor=none;align=center;verticalAlign=middle;whiteSpace=wrap;rounded=0;" vertex="1" parent="1">
          <mxGeometry x="552" y="538" width="40" height="20" as="geometry" />
        </mxCell>
        <mxCell id="oC6Kfuh_bPXCMeebPesq-49" value="2" style="text;html=1;strokeColor=none;fillColor=none;align=center;verticalAlign=middle;whiteSpace=wrap;rounded=0;" vertex="1" parent="1">
          <mxGeometry x="442" y="538" width="40" height="20" as="geometry" />
        </mxCell>
        <mxCell id="oC6Kfuh_bPXCMeebPesq-50" value="1" style="text;html=1;strokeColor=none;fillColor=none;align=center;verticalAlign=middle;whiteSpace=wrap;rounded=0;" vertex="1" parent="1">
          <mxGeometry x="312" y="538" width="40" height="20" as="geometry" />
        </mxCell>
        <mxCell id="oC6Kfuh_bPXCMeebPesq-51" value="5" style="text;html=1;strokeColor=none;fillColor=none;align=center;verticalAlign=middle;whiteSpace=wrap;rounded=0;fontColor=#FF0000;" vertex="1" parent="1">
          <mxGeometry x="672" y="538" width="40" height="20" as="geometry" />
        </mxCell>
        <mxCell id="oC6Kfuh_bPXCMeebPesq-52" value="6" style="text;html=1;strokeColor=none;fillColor=none;align=center;verticalAlign=middle;whiteSpace=wrap;rounded=0;fontColor=#FF0000;" vertex="1" parent="1">
          <mxGeometry x="792" y="538" width="40" height="20" as="geometry" />
        </mxCell>
        <mxCell id="oC6Kfuh_bPXCMeebPesq-53" value="收缩：奖池收缩；删除空位；相当于剩下奖品重新编号" style="text;html=1;strokeColor=none;fillColor=none;align=left;verticalAlign=middle;whiteSpace=wrap;rounded=0;fontSize=21;" vertex="1" parent="1">
          <mxGeometry x="152" y="415" width="578" height="20" as="geometry" />
        </mxCell>
        <mxCell id="oC6Kfuh_bPXCMeebPesq-54" value="4" style="text;html=1;strokeColor=none;fillColor=none;align=center;verticalAlign=middle;whiteSpace=wrap;rounded=0;fontColor=#FF0000;" vertex="1" parent="1">
          <mxGeometry x="552" y="538" width="40" height="20" as="geometry" />
        </mxCell>
        <mxCell id="oC6Kfuh_bPXCMeebPesq-55" value="3" style="text;html=1;strokeColor=none;fillColor=none;align=center;verticalAlign=middle;whiteSpace=wrap;rounded=0;" vertex="1" parent="1">
          <mxGeometry x="552" y="611" width="40" height="20" as="geometry" />
        </mxCell>
        <mxCell id="oC6Kfuh_bPXCMeebPesq-56" value="5" style="text;html=1;strokeColor=none;fillColor=none;align=center;verticalAlign=middle;whiteSpace=wrap;rounded=0;" vertex="1" parent="1">
          <mxGeometry x="792" y="611" width="40" height="20" as="geometry" />
        </mxCell>
        <mxCell id="oC6Kfuh_bPXCMeebPesq-57" value="4" style="text;html=1;strokeColor=none;fillColor=none;align=center;verticalAlign=middle;whiteSpace=wrap;rounded=0;" vertex="1" parent="1">
          <mxGeometry x="672" y="611" width="40" height="20" as="geometry" />
        </mxCell>
        <mxCell id="oC6Kfuh_bPXCMeebPesq-58" value="" style="endArrow=classic;html=1;fontSize=16;fontColor=#FF0000;entryX=0.5;entryY=0;entryDx=0;entryDy=0;exitX=0.5;exitY=1;exitDx=0;exitDy=0;" edge="1" parent="1" source="oC6Kfuh_bPXCMeebPesq-54" target="oC6Kfuh_bPXCMeebPesq-55">
          <mxGeometry width="50" height="50" relative="1" as="geometry">
            <mxPoint x="572" y="571" as="sourcePoint" />
            <mxPoint x="480" y="651" as="targetPoint" />
          </mxGeometry>
        </mxCell>
        <mxCell id="oC6Kfuh_bPXCMeebPesq-59" value="" style="endArrow=classic;html=1;fontSize=16;fontColor=#FF0000;entryX=0.5;entryY=0;entryDx=0;entryDy=0;exitX=0.5;exitY=1;exitDx=0;exitDy=0;" edge="1" parent="1">
          <mxGeometry width="50" height="50" relative="1" as="geometry">
            <mxPoint x="692" y="558" as="sourcePoint" />
            <mxPoint x="692" y="611" as="targetPoint" />
          </mxGeometry>
        </mxCell>
        <mxCell id="oC6Kfuh_bPXCMeebPesq-62" value="" style="endArrow=classic;html=1;fontSize=16;fontColor=#FF0000;entryX=0.5;entryY=0;entryDx=0;entryDy=0;exitX=0.5;exitY=1;exitDx=0;exitDy=0;" edge="1" parent="1">
          <mxGeometry width="50" height="50" relative="1" as="geometry">
            <mxPoint x="811.5" y="558" as="sourcePoint" />
            <mxPoint x="811.5" y="611" as="targetPoint" />
          </mxGeometry>
        </mxCell>
        <mxCell id="oC6Kfuh_bPXCMeebPesq-63" value="一等奖" style="rounded=0;whiteSpace=wrap;html=1;" vertex="1" parent="1">
          <mxGeometry x="150" y="667" width="120" height="60" as="geometry" />
        </mxCell>
        <mxCell id="oC6Kfuh_bPXCMeebPesq-64" value="谢谢参与" style="rounded=0;whiteSpace=wrap;html=1;" vertex="1" parent="1">
          <mxGeometry x="270" y="667" width="120" height="60" as="geometry" />
        </mxCell>
        <mxCell id="oC6Kfuh_bPXCMeebPesq-65" value="二等奖" style="rounded=0;whiteSpace=wrap;html=1;" vertex="1" parent="1">
          <mxGeometry x="390" y="667" width="120" height="60" as="geometry" />
        </mxCell>
        <mxCell id="oC6Kfuh_bPXCMeebPesq-66" value="一等奖" style="rounded=0;whiteSpace=wrap;html=1;" vertex="1" parent="1">
          <mxGeometry x="510" y="667" width="120" height="60" as="geometry" />
        </mxCell>
        <mxCell id="oC6Kfuh_bPXCMeebPesq-67" value="二等奖" style="rounded=0;whiteSpace=wrap;html=1;" vertex="1" parent="1">
          <mxGeometry x="630" y="667" width="120" height="60" as="geometry" />
        </mxCell>
        <mxCell id="oC6Kfuh_bPXCMeebPesq-68" value="&lt;span&gt;谢谢参与&lt;/span&gt;" style="rounded=0;whiteSpace=wrap;html=1;" vertex="1" parent="1">
          <mxGeometry x="750" y="667" width="120" height="60" as="geometry" />
        </mxCell>
        <mxCell id="oC6Kfuh_bPXCMeebPesq-69" value="0" style="text;html=1;strokeColor=none;fillColor=none;align=center;verticalAlign=middle;whiteSpace=wrap;rounded=0;" vertex="1" parent="1">
          <mxGeometry x="190" y="747" width="40" height="20" as="geometry" />
        </mxCell>
        <mxCell id="oC6Kfuh_bPXCMeebPesq-71" value="2" style="text;html=1;strokeColor=none;fillColor=none;align=center;verticalAlign=middle;whiteSpace=wrap;rounded=0;" vertex="1" parent="1">
          <mxGeometry x="440" y="747" width="40" height="20" as="geometry" />
        </mxCell>
        <mxCell id="oC6Kfuh_bPXCMeebPesq-72" value="1" style="text;html=1;strokeColor=none;fillColor=none;align=center;verticalAlign=middle;whiteSpace=wrap;rounded=0;" vertex="1" parent="1">
          <mxGeometry x="310" y="747" width="40" height="20" as="geometry" />
        </mxCell>
        <mxCell id="oC6Kfuh_bPXCMeebPesq-75" value="下一轮：准备下一轮抽奖" style="text;html=1;strokeColor=none;fillColor=none;align=left;verticalAlign=middle;whiteSpace=wrap;rounded=0;fontSize=21;" vertex="1" parent="1">
          <mxGeometry x="150" y="624" width="578" height="20" as="geometry" />
        </mxCell>
        <mxCell id="oC6Kfuh_bPXCMeebPesq-77" value="3" style="text;html=1;strokeColor=none;fillColor=none;align=center;verticalAlign=middle;whiteSpace=wrap;rounded=0;" vertex="1" parent="1">
          <mxGeometry x="545" y="747" width="40" height="20" as="geometry" />
        </mxCell>
        <mxCell id="oC6Kfuh_bPXCMeebPesq-78" value="5" style="text;html=1;strokeColor=none;fillColor=none;align=center;verticalAlign=middle;whiteSpace=wrap;rounded=0;" vertex="1" parent="1">
          <mxGeometry x="785" y="747" width="40" height="20" as="geometry" />
        </mxCell>
        <mxCell id="oC6Kfuh_bPXCMeebPesq-79" value="4" style="text;html=1;strokeColor=none;fillColor=none;align=center;verticalAlign=middle;whiteSpace=wrap;rounded=0;" vertex="1" parent="1">
          <mxGeometry x="665" y="747" width="40" height="20" as="geometry" />
        </mxCell>
        <mxCell id="oC6Kfuh_bPXCMeebPesq-83" value="&lt;h1 style=&quot;font-size: 16px&quot;&gt;&lt;span style=&quot;font-weight: 400&quot;&gt;优缺点：&lt;/span&gt;&lt;/h1&gt;&lt;h1 style=&quot;font-size: 16px&quot;&gt;&lt;span style=&quot;font-weight: normal ; font-size: 16px&quot;&gt;1：优点：每个奖品抽中的概率在当轮均等&lt;/span&gt;&lt;/h1&gt;&lt;div&gt;&lt;span style=&quot;font-weight: normal ; font-size: 16px&quot;&gt;2：优点：每种奖品抽中的概率与它的奖品数量有关&lt;/span&gt;&lt;/div&gt;&lt;div&gt;&lt;span style=&quot;font-weight: normal ; font-size: 16px&quot;&gt;&lt;br&gt;&lt;/span&gt;&lt;/div&gt;&lt;div&gt;&lt;span style=&quot;font-weight: normal ; font-size: 16px&quot;&gt;3：优点：抽奖不受人为控制，相对公平&lt;/span&gt;&lt;/div&gt;&lt;div&gt;&lt;span style=&quot;font-weight: normal ; font-size: 16px&quot;&gt;&lt;br&gt;&lt;/span&gt;&lt;/div&gt;&lt;div&gt;&lt;span style=&quot;font-weight: normal ; font-size: 16px&quot;&gt;4：缺点：当奖品数量为海量时，奖池存储和操作有性能总量，特别是集中式存储与本地计算同步性能消耗&lt;br&gt;&lt;/span&gt;&lt;/div&gt;" style="text;html=1;strokeColor=none;fillColor=none;spacing=5;spacingTop=-20;whiteSpace=wrap;overflow=hidden;rounded=0;fontSize=16;fontStyle=1" vertex="1" parent="1">
          <mxGeometry x="632" y="-110" width="448" height="180" as="geometry" />
        </mxCell>
        <mxCell id="oC6Kfuh_bPXCMeebPesq-84" value="&lt;h1&gt;一：奖池方案&lt;/h1&gt;" style="text;html=1;strokeColor=none;fillColor=none;spacing=5;spacingTop=-20;whiteSpace=wrap;overflow=hidden;rounded=0;fontSize=16;fontColor=#FF0000;align=left;" vertex="1" parent="1">
          <mxGeometry x="152" y="-230" width="428" height="70" as="geometry" />
        </mxCell>
        <mxCell id="oC6Kfuh_bPXCMeebPesq-85" value="&lt;h1&gt;二：奖品种类池方案&lt;/h1&gt;" style="text;html=1;strokeColor=none;fillColor=none;spacing=5;spacingTop=-20;whiteSpace=wrap;overflow=hidden;rounded=0;fontSize=16;fontColor=#FF0000;align=left;" vertex="1" parent="1">
          <mxGeometry x="140" y="820" width="428" height="70" as="geometry" />
        </mxCell>
        <mxCell id="oC6Kfuh_bPXCMeebPesq-86" value="" style="rounded=0;whiteSpace=wrap;html=1;" vertex="1" parent="1">
          <mxGeometry x="140" y="960" width="830" height="60" as="geometry" />
        </mxCell>
        <mxCell id="oC6Kfuh_bPXCMeebPesq-87" value="一等奖" style="rounded=0;whiteSpace=wrap;html=1;" vertex="1" parent="1">
          <mxGeometry x="140" y="960" width="120" height="60" as="geometry" />
        </mxCell>
        <mxCell id="oC6Kfuh_bPXCMeebPesq-88" value="二等奖" style="rounded=0;whiteSpace=wrap;html=1;" vertex="1" parent="1">
          <mxGeometry x="260" y="960" width="120" height="60" as="geometry" />
        </mxCell>
        <mxCell id="oC6Kfuh_bPXCMeebPesq-89" value="三等奖" style="rounded=0;whiteSpace=wrap;html=1;" vertex="1" parent="1">
          <mxGeometry x="380" y="960" width="120" height="60" as="geometry" />
        </mxCell>
        <mxCell id="oC6Kfuh_bPXCMeebPesq-90" value="四等奖" style="rounded=0;whiteSpace=wrap;html=1;" vertex="1" parent="1">
          <mxGeometry x="500" y="960" width="120" height="60" as="geometry" />
        </mxCell>
        <mxCell id="oC6Kfuh_bPXCMeebPesq-91" value="五等奖" style="rounded=0;whiteSpace=wrap;html=1;" vertex="1" parent="1">
          <mxGeometry x="620" y="960" width="120" height="60" as="geometry" />
        </mxCell>
        <mxCell id="oC6Kfuh_bPXCMeebPesq-92" value="六等奖" style="rounded=0;whiteSpace=wrap;html=1;" vertex="1" parent="1">
          <mxGeometry x="740" y="960" width="120" height="60" as="geometry" />
        </mxCell>
        <mxCell id="oC6Kfuh_bPXCMeebPesq-93" value="&lt;span&gt;谢谢参与&lt;/span&gt;" style="rounded=0;whiteSpace=wrap;html=1;" vertex="1" parent="1">
          <mxGeometry x="860" y="960" width="120" height="60" as="geometry" />
        </mxCell>
        <mxCell id="oC6Kfuh_bPXCMeebPesq-94" value="0" style="text;html=1;strokeColor=none;fillColor=none;align=left;verticalAlign=middle;whiteSpace=wrap;rounded=0;" vertex="1" parent="1">
          <mxGeometry x="140" y="1040" width="40" height="20" as="geometry" />
        </mxCell>
        <mxCell id="oC6Kfuh_bPXCMeebPesq-97" value="100" style="text;html=1;strokeColor=none;fillColor=none;align=left;verticalAlign=middle;whiteSpace=wrap;rounded=0;" vertex="1" parent="1">
          <mxGeometry x="500" y="1040" width="40" height="20" as="geometry" />
        </mxCell>
        <mxCell id="oC6Kfuh_bPXCMeebPesq-98" value="50" style="text;html=1;strokeColor=none;fillColor=none;align=left;verticalAlign=middle;whiteSpace=wrap;rounded=0;" vertex="1" parent="1">
          <mxGeometry x="380" y="1040" width="40" height="20" as="geometry" />
        </mxCell>
        <mxCell id="oC6Kfuh_bPXCMeebPesq-101" value="奖池：用一个线性表存储；每格式存储奖品各类对应的数量范围；加起来为总量；生产总量范围内的值，落在生个区间的概率就是这个奖品的概率" style="text;html=1;strokeColor=none;fillColor=none;align=left;verticalAlign=middle;whiteSpace=wrap;rounded=0;fontSize=21;" vertex="1" parent="1">
          <mxGeometry x="140" y="880" width="850" height="70" as="geometry" />
        </mxCell>
        <mxCell id="oC6Kfuh_bPXCMeebPesq-102" value="10" style="text;html=1;strokeColor=none;fillColor=none;align=left;verticalAlign=middle;whiteSpace=wrap;rounded=0;" vertex="1" parent="1">
          <mxGeometry x="260" y="1040" width="40" height="20" as="geometry" />
        </mxCell>
        <mxCell id="oC6Kfuh_bPXCMeebPesq-104" value="150" style="text;html=1;strokeColor=none;fillColor=none;align=left;verticalAlign=middle;whiteSpace=wrap;rounded=0;" vertex="1" parent="1">
          <mxGeometry x="620" y="1040" width="40" height="20" as="geometry" />
        </mxCell>
        <mxCell id="oC6Kfuh_bPXCMeebPesq-105" value="300" style="text;html=1;strokeColor=none;fillColor=none;align=left;verticalAlign=middle;whiteSpace=wrap;rounded=0;" vertex="1" parent="1">
          <mxGeometry x="740" y="1040" width="40" height="20" as="geometry" />
        </mxCell>
        <mxCell id="oC6Kfuh_bPXCMeebPesq-106" value="600" style="text;html=1;strokeColor=none;fillColor=none;align=left;verticalAlign=middle;whiteSpace=wrap;rounded=0;" vertex="1" parent="1">
          <mxGeometry x="860" y="1040" width="40" height="20" as="geometry" />
        </mxCell>
        <mxCell id="oC6Kfuh_bPXCMeebPesq-107" value="2000" style="text;html=1;strokeColor=none;fillColor=none;align=left;verticalAlign=middle;whiteSpace=wrap;rounded=0;" vertex="1" parent="1">
          <mxGeometry x="980" y="1040" width="40" height="20" as="geometry" />
        </mxCell>
        <mxCell id="oC6Kfuh_bPXCMeebPesq-108" value="" style="rounded=0;whiteSpace=wrap;html=1;" vertex="1" parent="1">
          <mxGeometry x="140" y="1140" width="830" height="60" as="geometry" />
        </mxCell>
        <mxCell id="oC6Kfuh_bPXCMeebPesq-109" value="一等奖" style="rounded=0;whiteSpace=wrap;html=1;" vertex="1" parent="1">
          <mxGeometry x="140" y="1140" width="120" height="60" as="geometry" />
        </mxCell>
        <mxCell id="oC6Kfuh_bPXCMeebPesq-110" value="二等奖" style="rounded=0;whiteSpace=wrap;html=1;" vertex="1" parent="1">
          <mxGeometry x="260" y="1140" width="120" height="60" as="geometry" />
        </mxCell>
        <mxCell id="oC6Kfuh_bPXCMeebPesq-111" value="三等奖" style="rounded=0;whiteSpace=wrap;html=1;" vertex="1" parent="1">
          <mxGeometry x="380" y="1140" width="120" height="60" as="geometry" />
        </mxCell>
        <mxCell id="oC6Kfuh_bPXCMeebPesq-112" value="四等奖" style="rounded=0;whiteSpace=wrap;html=1;" vertex="1" parent="1">
          <mxGeometry x="500" y="1140" width="120" height="60" as="geometry" />
        </mxCell>
        <mxCell id="oC6Kfuh_bPXCMeebPesq-113" value="五等奖" style="rounded=0;whiteSpace=wrap;html=1;fontColor=#FF0000;" vertex="1" parent="1">
          <mxGeometry x="620" y="1140" width="120" height="60" as="geometry" />
        </mxCell>
        <mxCell id="oC6Kfuh_bPXCMeebPesq-114" value="六等奖" style="rounded=0;whiteSpace=wrap;html=1;" vertex="1" parent="1">
          <mxGeometry x="740" y="1140" width="120" height="60" as="geometry" />
        </mxCell>
        <mxCell id="oC6Kfuh_bPXCMeebPesq-115" value="&lt;span&gt;谢谢参与&lt;/span&gt;" style="rounded=0;whiteSpace=wrap;html=1;" vertex="1" parent="1">
          <mxGeometry x="860" y="1140" width="120" height="60" as="geometry" />
        </mxCell>
        <mxCell id="oC6Kfuh_bPXCMeebPesq-116" value="0" style="text;html=1;strokeColor=none;fillColor=none;align=left;verticalAlign=middle;whiteSpace=wrap;rounded=0;" vertex="1" parent="1">
          <mxGeometry x="140" y="1220" width="40" height="20" as="geometry" />
        </mxCell>
        <mxCell id="oC6Kfuh_bPXCMeebPesq-117" value="100" style="text;html=1;strokeColor=none;fillColor=none;align=left;verticalAlign=middle;whiteSpace=wrap;rounded=0;" vertex="1" parent="1">
          <mxGeometry x="500" y="1220" width="40" height="20" as="geometry" />
        </mxCell>
        <mxCell id="oC6Kfuh_bPXCMeebPesq-118" value="50" style="text;html=1;strokeColor=none;fillColor=none;align=left;verticalAlign=middle;whiteSpace=wrap;rounded=0;" vertex="1" parent="1">
          <mxGeometry x="380" y="1220" width="40" height="20" as="geometry" />
        </mxCell>
        <mxCell id="oC6Kfuh_bPXCMeebPesq-119" value="10" style="text;html=1;strokeColor=none;fillColor=none;align=left;verticalAlign=middle;whiteSpace=wrap;rounded=0;" vertex="1" parent="1">
          <mxGeometry x="260" y="1220" width="40" height="20" as="geometry" />
        </mxCell>
        <mxCell id="oC6Kfuh_bPXCMeebPesq-120" value="150" style="text;html=1;strokeColor=none;fillColor=none;align=left;verticalAlign=middle;whiteSpace=wrap;rounded=0;" vertex="1" parent="1">
          <mxGeometry x="620" y="1220" width="40" height="20" as="geometry" />
        </mxCell>
        <mxCell id="oC6Kfuh_bPXCMeebPesq-121" value="300" style="text;html=1;strokeColor=none;fillColor=none;align=left;verticalAlign=middle;whiteSpace=wrap;rounded=0;" vertex="1" parent="1">
          <mxGeometry x="740" y="1220" width="40" height="20" as="geometry" />
        </mxCell>
        <mxCell id="oC6Kfuh_bPXCMeebPesq-122" value="600" style="text;html=1;strokeColor=none;fillColor=none;align=left;verticalAlign=middle;whiteSpace=wrap;rounded=0;" vertex="1" parent="1">
          <mxGeometry x="860" y="1220" width="40" height="20" as="geometry" />
        </mxCell>
        <mxCell id="oC6Kfuh_bPXCMeebPesq-123" value="2000" style="text;html=1;strokeColor=none;fillColor=none;align=left;verticalAlign=middle;whiteSpace=wrap;rounded=0;" vertex="1" parent="1">
          <mxGeometry x="980" y="1220" width="40" height="20" as="geometry" />
        </mxCell>
        <mxCell id="oC6Kfuh_bPXCMeebPesq-124" value="产生随机数：如：250，则落在150-300即五等奖" style="text;html=1;strokeColor=none;fillColor=none;align=left;verticalAlign=middle;whiteSpace=wrap;rounded=0;fontSize=19;fontColor=#330000;fontStyle=0" vertex="1" parent="1">
          <mxGeometry x="140" y="1100" width="520" height="20" as="geometry" />
        </mxCell>
        <mxCell id="oC6Kfuh_bPXCMeebPesq-125" value="250" style="text;html=1;strokeColor=none;fillColor=none;align=center;verticalAlign=middle;whiteSpace=wrap;rounded=0;fontSize=19;fontColor=#FF0000;" vertex="1" parent="1">
          <mxGeometry x="665" y="1250" width="40" height="20" as="geometry" />
        </mxCell>
        <mxCell id="oC6Kfuh_bPXCMeebPesq-126" value="&lt;h1&gt;混合型：奖品种类池方案 +&amp;nbsp;池收缩 +&amp;nbsp;概率动态计算？不用---谢谢参与去掉就是100%中奖&lt;/h1&gt;" style="text;html=1;strokeColor=none;fillColor=none;spacing=5;spacingTop=-20;whiteSpace=wrap;overflow=hidden;rounded=0;fontSize=16;fontColor=#FF0000;align=left;" vertex="1" parent="1">
          <mxGeometry x="132" y="1290" width="1328" height="70" as="geometry" />
        </mxCell>
        <mxCell id="oC6Kfuh_bPXCMeebPesq-127" value="" style="rounded=0;whiteSpace=wrap;html=1;" vertex="1" parent="1">
          <mxGeometry x="132" y="1430" width="830" height="60" as="geometry" />
        </mxCell>
        <mxCell id="oC6Kfuh_bPXCMeebPesq-128" value="一等奖" style="rounded=0;whiteSpace=wrap;html=1;" vertex="1" parent="1">
          <mxGeometry x="132" y="1430" width="120" height="60" as="geometry" />
        </mxCell>
        <mxCell id="oC6Kfuh_bPXCMeebPesq-129" value="二等奖" style="rounded=0;whiteSpace=wrap;html=1;" vertex="1" parent="1">
          <mxGeometry x="252" y="1430" width="120" height="60" as="geometry" />
        </mxCell>
        <mxCell id="oC6Kfuh_bPXCMeebPesq-130" value="三等奖" style="rounded=0;whiteSpace=wrap;html=1;" vertex="1" parent="1">
          <mxGeometry x="372" y="1430" width="120" height="60" as="geometry" />
        </mxCell>
        <mxCell id="oC6Kfuh_bPXCMeebPesq-131" value="四等奖" style="rounded=0;whiteSpace=wrap;html=1;" vertex="1" parent="1">
          <mxGeometry x="492" y="1430" width="120" height="60" as="geometry" />
        </mxCell>
        <mxCell id="oC6Kfuh_bPXCMeebPesq-132" value="五等奖" style="rounded=0;whiteSpace=wrap;html=1;" vertex="1" parent="1">
          <mxGeometry x="612" y="1430" width="120" height="60" as="geometry" />
        </mxCell>
        <mxCell id="oC6Kfuh_bPXCMeebPesq-133" value="六等奖" style="rounded=0;whiteSpace=wrap;html=1;" vertex="1" parent="1">
          <mxGeometry x="732" y="1430" width="120" height="60" as="geometry" />
        </mxCell>
        <mxCell id="oC6Kfuh_bPXCMeebPesq-134" value="&lt;span&gt;谢谢参与&lt;/span&gt;" style="rounded=0;whiteSpace=wrap;html=1;" vertex="1" parent="1">
          <mxGeometry x="852" y="1430" width="120" height="60" as="geometry" />
        </mxCell>
        <mxCell id="oC6Kfuh_bPXCMeebPesq-135" value="0" style="text;html=1;strokeColor=none;fillColor=none;align=left;verticalAlign=middle;whiteSpace=wrap;rounded=0;" vertex="1" parent="1">
          <mxGeometry x="132" y="1510" width="40" height="20" as="geometry" />
        </mxCell>
        <mxCell id="oC6Kfuh_bPXCMeebPesq-136" value="100" style="text;html=1;strokeColor=none;fillColor=none;align=left;verticalAlign=middle;whiteSpace=wrap;rounded=0;" vertex="1" parent="1">
          <mxGeometry x="492" y="1510" width="40" height="20" as="geometry" />
        </mxCell>
        <mxCell id="oC6Kfuh_bPXCMeebPesq-137" value="50" style="text;html=1;strokeColor=none;fillColor=none;align=left;verticalAlign=middle;whiteSpace=wrap;rounded=0;" vertex="1" parent="1">
          <mxGeometry x="372" y="1510" width="40" height="20" as="geometry" />
        </mxCell>
        <mxCell id="oC6Kfuh_bPXCMeebPesq-138" value="奖池：用一个线性表存储；每格式存储奖品各类对应的数量范围；加起来为总量；生产总量范围内的值，落在生个区间的概率就是这个奖品的概率" style="text;html=1;strokeColor=none;fillColor=none;align=left;verticalAlign=middle;whiteSpace=wrap;rounded=0;fontSize=21;" vertex="1" parent="1">
          <mxGeometry x="132" y="1350" width="850" height="70" as="geometry" />
        </mxCell>
        <mxCell id="oC6Kfuh_bPXCMeebPesq-139" value="10" style="text;html=1;strokeColor=none;fillColor=none;align=left;verticalAlign=middle;whiteSpace=wrap;rounded=0;" vertex="1" parent="1">
          <mxGeometry x="252" y="1510" width="40" height="20" as="geometry" />
        </mxCell>
        <mxCell id="oC6Kfuh_bPXCMeebPesq-140" value="150" style="text;html=1;strokeColor=none;fillColor=none;align=left;verticalAlign=middle;whiteSpace=wrap;rounded=0;" vertex="1" parent="1">
          <mxGeometry x="612" y="1510" width="40" height="20" as="geometry" />
        </mxCell>
        <mxCell id="oC6Kfuh_bPXCMeebPesq-141" value="300" style="text;html=1;strokeColor=none;fillColor=none;align=left;verticalAlign=middle;whiteSpace=wrap;rounded=0;" vertex="1" parent="1">
          <mxGeometry x="732" y="1510" width="40" height="20" as="geometry" />
        </mxCell>
        <mxCell id="oC6Kfuh_bPXCMeebPesq-142" value="600" style="text;html=1;strokeColor=none;fillColor=none;align=left;verticalAlign=middle;whiteSpace=wrap;rounded=0;" vertex="1" parent="1">
          <mxGeometry x="852" y="1510" width="40" height="20" as="geometry" />
        </mxCell>
        <mxCell id="oC6Kfuh_bPXCMeebPesq-143" value="2000" style="text;html=1;strokeColor=none;fillColor=none;align=left;verticalAlign=middle;whiteSpace=wrap;rounded=0;" vertex="1" parent="1">
          <mxGeometry x="972" y="1510" width="40" height="20" as="geometry" />
        </mxCell>
        <mxCell id="oC6Kfuh_bPXCMeebPesq-144" value="" style="rounded=0;whiteSpace=wrap;html=1;" vertex="1" parent="1">
          <mxGeometry x="132" y="1610" width="830" height="60" as="geometry" />
        </mxCell>
        <mxCell id="oC6Kfuh_bPXCMeebPesq-145" value="一等奖" style="rounded=0;whiteSpace=wrap;html=1;" vertex="1" parent="1">
          <mxGeometry x="132" y="1610" width="120" height="60" as="geometry" />
        </mxCell>
        <mxCell id="oC6Kfuh_bPXCMeebPesq-146" value="二等奖" style="rounded=0;whiteSpace=wrap;html=1;" vertex="1" parent="1">
          <mxGeometry x="252" y="1610" width="120" height="60" as="geometry" />
        </mxCell>
        <mxCell id="oC6Kfuh_bPXCMeebPesq-147" value="三等奖" style="rounded=0;whiteSpace=wrap;html=1;" vertex="1" parent="1">
          <mxGeometry x="372" y="1610" width="120" height="60" as="geometry" />
        </mxCell>
        <mxCell id="oC6Kfuh_bPXCMeebPesq-148" value="四等奖" style="rounded=0;whiteSpace=wrap;html=1;" vertex="1" parent="1">
          <mxGeometry x="492" y="1610" width="120" height="60" as="geometry" />
        </mxCell>
        <mxCell id="oC6Kfuh_bPXCMeebPesq-149" value="五等奖" style="rounded=0;whiteSpace=wrap;html=1;fontColor=#FF0000;" vertex="1" parent="1">
          <mxGeometry x="612" y="1610" width="120" height="60" as="geometry" />
        </mxCell>
        <mxCell id="oC6Kfuh_bPXCMeebPesq-150" value="六等奖" style="rounded=0;whiteSpace=wrap;html=1;" vertex="1" parent="1">
          <mxGeometry x="732" y="1610" width="120" height="60" as="geometry" />
        </mxCell>
        <mxCell id="oC6Kfuh_bPXCMeebPesq-151" value="&lt;span&gt;谢谢参与&lt;/span&gt;" style="rounded=0;whiteSpace=wrap;html=1;" vertex="1" parent="1">
          <mxGeometry x="852" y="1610" width="120" height="60" as="geometry" />
        </mxCell>
        <mxCell id="oC6Kfuh_bPXCMeebPesq-152" value="0" style="text;html=1;strokeColor=none;fillColor=none;align=left;verticalAlign=middle;whiteSpace=wrap;rounded=0;" vertex="1" parent="1">
          <mxGeometry x="132" y="1690" width="40" height="20" as="geometry" />
        </mxCell>
        <mxCell id="oC6Kfuh_bPXCMeebPesq-153" value="100" style="text;html=1;strokeColor=none;fillColor=none;align=left;verticalAlign=middle;whiteSpace=wrap;rounded=0;" vertex="1" parent="1">
          <mxGeometry x="492" y="1690" width="40" height="20" as="geometry" />
        </mxCell>
        <mxCell id="oC6Kfuh_bPXCMeebPesq-154" value="50" style="text;html=1;strokeColor=none;fillColor=none;align=left;verticalAlign=middle;whiteSpace=wrap;rounded=0;" vertex="1" parent="1">
          <mxGeometry x="372" y="1690" width="40" height="20" as="geometry" />
        </mxCell>
        <mxCell id="oC6Kfuh_bPXCMeebPesq-155" value="10" style="text;html=1;strokeColor=none;fillColor=none;align=left;verticalAlign=middle;whiteSpace=wrap;rounded=0;" vertex="1" parent="1">
          <mxGeometry x="252" y="1690" width="40" height="20" as="geometry" />
        </mxCell>
        <mxCell id="oC6Kfuh_bPXCMeebPesq-156" value="150" style="text;html=1;strokeColor=none;fillColor=none;align=left;verticalAlign=middle;whiteSpace=wrap;rounded=0;" vertex="1" parent="1">
          <mxGeometry x="612" y="1690" width="40" height="20" as="geometry" />
        </mxCell>
        <mxCell id="oC6Kfuh_bPXCMeebPesq-157" value="300" style="text;html=1;strokeColor=none;fillColor=none;align=left;verticalAlign=middle;whiteSpace=wrap;rounded=0;" vertex="1" parent="1">
          <mxGeometry x="732" y="1690" width="40" height="20" as="geometry" />
        </mxCell>
        <mxCell id="oC6Kfuh_bPXCMeebPesq-158" value="600" style="text;html=1;strokeColor=none;fillColor=none;align=left;verticalAlign=middle;whiteSpace=wrap;rounded=0;" vertex="1" parent="1">
          <mxGeometry x="852" y="1690" width="40" height="20" as="geometry" />
        </mxCell>
        <mxCell id="oC6Kfuh_bPXCMeebPesq-159" value="2000" style="text;html=1;strokeColor=none;fillColor=none;align=left;verticalAlign=middle;whiteSpace=wrap;rounded=0;" vertex="1" parent="1">
          <mxGeometry x="972" y="1690" width="40" height="20" as="geometry" />
        </mxCell>
        <mxCell id="oC6Kfuh_bPXCMeebPesq-160" value="产生随机数：如：250，则落在150-300即五等奖" style="text;html=1;strokeColor=none;fillColor=none;align=left;verticalAlign=middle;whiteSpace=wrap;rounded=0;fontSize=19;fontColor=#330000;fontStyle=0" vertex="1" parent="1">
          <mxGeometry x="132" y="1570" width="520" height="20" as="geometry" />
        </mxCell>
        <mxCell id="oC6Kfuh_bPXCMeebPesq-161" value="250" style="text;html=1;strokeColor=none;fillColor=none;align=center;verticalAlign=middle;whiteSpace=wrap;rounded=0;fontSize=19;fontColor=#FF0000;" vertex="1" parent="1">
          <mxGeometry x="657" y="1720" width="40" height="20" as="geometry" />
        </mxCell>
        <mxCell id="oC6Kfuh_bPXCMeebPesq-162" value="&lt;h1 style=&quot;font-size: 16px&quot;&gt;&lt;span style=&quot;font-weight: 400&quot;&gt;优缺点：&lt;/span&gt;&lt;/h1&gt;&lt;h1 style=&quot;font-size: 16px&quot;&gt;&lt;span style=&quot;font-weight: normal ; font-size: 16px&quot;&gt;1：优点：种类池小，可以支持海量奖品&lt;/span&gt;&lt;/h1&gt;&lt;h1 style=&quot;font-size: 16px&quot;&gt;&lt;br&gt;&lt;/h1&gt;&lt;div&gt;&lt;span style=&quot;font-weight: normal ; font-size: 16px&quot;&gt;3：缺点：抽奖概率人为控制，有不公平风险；有时也为优点&lt;/span&gt;&lt;/div&gt;&lt;div&gt;&lt;span style=&quot;font-weight: normal ; font-size: 16px&quot;&gt;&lt;br&gt;&lt;/span&gt;&lt;/div&gt;&lt;div&gt;&lt;span style=&quot;font-weight: normal ; font-size: 16px&quot;&gt;4：缺点：可以抽到相同的号；而且能兑换到该区间的奖&lt;br&gt;&lt;/span&gt;&lt;/div&gt;" style="text;html=1;strokeColor=none;fillColor=none;spacing=5;spacingTop=-20;whiteSpace=wrap;overflow=hidden;rounded=0;fontSize=16;fontStyle=1" vertex="1" parent="1">
          <mxGeometry x="950" y="431" width="448" height="180" as="geometry" />
        </mxCell>
      </root>
    </mxGraphModel>
  </diagram>
</mxfile>
